<svg width="49" height="38" viewBox="0 0 49 38" fill="none" xmlns="http://www.w3.org/2000/svg">
<path opacity="0.8" d="M17.6481 37.7542H0.199219V25.273C0.199219 20.2225 0.633889 16.2484 1.50323 13.3506C2.41397 10.4114 4.06985 7.78267 6.47089 5.46442C8.87192 3.14618 11.9353 1.32471 15.6611 0L19.0763 7.2031C15.599 8.36223 13.0944 9.97671 11.5627 12.0466C10.0724 14.1164 9.28589 16.8693 9.2031 20.3053H17.6481V37.7542ZM46.771 37.7542H29.3221V25.273C29.3221 20.1811 29.7568 16.1863 30.6261 13.2885C31.5369 10.3907 33.1927 7.78267 35.5938 5.46442C38.0362 3.14618 41.0996 1.32471 44.784 0L48.1992 7.2031C44.7219 8.36223 42.2173 9.97671 40.6856 12.0466C39.1953 14.1164 38.4088 16.8693 38.326 20.3053H46.771V37.7542Z" fill="#5522D0"/>
</svg>
