<svg width="33" height="26" viewBox="0 0 33 26" fill="none" xmlns="http://www.w3.org/2000/svg">
<path opacity="0.8" d="M20.5666 0.754301H32.1992V8.81445C32.1992 12.0759 31.9094 14.6424 31.3299 16.5137C30.7227 18.4118 29.6188 20.1094 28.0181 21.6064C26.4174 23.1035 24.3752 24.2798 21.8913 25.1353L19.6145 20.4836C21.9327 19.7351 23.6024 18.6925 24.6235 17.3558C25.6171 16.0191 26.1414 14.2414 26.1966 12.0225H20.5666V0.754301ZM1.15135 0.754301H12.784V8.81445C12.784 12.1027 12.4942 14.6825 11.9146 16.5538C11.3075 18.4251 10.2035 20.1094 8.60284 21.6064C6.97455 23.1035 4.93229 24.2798 2.47606 25.1353L0.199219 20.4836C2.51746 19.7351 4.18714 18.6925 5.20827 17.3558C6.20181 16.0191 6.72617 14.2414 6.78137 12.0225H1.15135V0.754301Z" fill="#5522D0"/>
</svg>
